<svg width="1379" height="995" viewBox="0 0 1379 995" fill="none" xmlns="http://www.w3.org/2000/svg">
<rect x="3.5" y="3.5" width="1372" height="988" rx="69.5" stroke="black" stroke-width="7"/>
<rect x="49.5" y="49.5" width="1280" height="897" rx="19.5" stroke="black" stroke-width="7"/>
<rect x="1081.5" y="100.5" width="206" height="48" rx="24" stroke="black" stroke-width="7"/>
<rect x="204.5" y="694.5" width="131" height="41" stroke="black" stroke-width="7"/>
<rect x="204.5" y="386.5" width="237" height="56" rx="28" stroke="black" stroke-width="7"/>
<rect x="204.5" y="469.5" width="336" height="56" rx="28" stroke="black" stroke-width="7"/>
<line x1="591" y1="120.5" x2="678" y2="120.5" stroke="black" stroke-width="7"/>
<line x1="201" y1="594.5" x2="511" y2="594.5" stroke="black" stroke-width="7"/>
<line x1="201" y1="620.5" x2="579" y2="620.5" stroke="black" stroke-width="7"/>
<line x1="201" y1="646.5" x2="551" y2="646.5" stroke="black" stroke-width="7"/>
<line x1="702" y1="120.5" x2="789" y2="120.5" stroke="black" stroke-width="7"/>
<circle cx="152.5" cy="124.5" r="34" stroke="black" stroke-width="7"/>
<path d="M942.218 748.059C1171.83 694.779 1150.17 544.657 1110.64 476.256C1092.39 424.395 1065.79 428.46 1023.09 428.46C1023.09 428.46 913.26 414.5 865.563 526.598C833.83 601.177 876.081 699.418 913.26 746.494C910.285 758.5 930.287 765 942.218 748.059Z" stroke="black" stroke-width="7"/>
<path d="M1094.13 395.891C1083.34 394.317 1072.1 416.93 1067.82 428.434L1082.48 430.573C1090.86 419.668 1104.91 397.466 1094.13 395.891Z" stroke="black" stroke-width="7"/>
<path d="M1010.79 383C1006.79 409.4 1049.79 415 1071.79 414.5L1079.29 403.5C1058.09 402.3 1024.79 389.333 1010.79 383Z" stroke="black" stroke-width="7"/>
<path d="M1096.79 408.5C1102.45 416.5 1155.79 442.5 1158.29 447C1160.79 451.5 1097.49 442.2 1088.29 423" stroke="black" stroke-width="7"/>
</svg>
