<?xml version="1.0" encoding="UTF-8"?>
<!-- Generated by Pixelmator Pro 3.3 -->
<svg width="1379" height="995" viewBox="0 0 1379 995" xmlns="http://www.w3.org/2000/svg" xmlns:xlink="http://www.w3.org/1999/xlink">
    <path id="Path" fill="none" stroke="#8c3cbf" stroke-width="7" d="M 73 3.5 L 1306 3.5 C 1344.383789 3.5 1375.5 34.616211 1375.5 73 L 1375.5 922 C 1375.5 960.383789 1344.383789 991.5 1306 991.5 L 73 991.5 C 34.616211 991.5 3.5 960.383789 3.5 922 L 3.5 73 C 3.5 34.616211 34.616211 3.5 73 3.5 Z"/>
    <path id="path1" fill="none" stroke="#8c3cbf" stroke-width="7" d="M 69 49.5 L 1310 49.5 C 1320.769531 49.5 1329.5 58.230469 1329.5 69 L 1329.5 927 C 1329.5 937.769531 1320.769531 946.5 1310 946.5 L 69 946.5 C 58.230446 946.5 49.5 937.769531 49.5 927 L 49.5 69 C 49.5 58.230469 58.230446 49.5 69 49.5 Z"/>
    <path id="path2" fill="none" stroke="#8c3cbf" stroke-width="7" d="M 1105.5 100.5 L 1263.5 100.5 C 1276.754883 100.5 1287.5 111.245178 1287.5 124.5 L 1287.5 124.5 C 1287.5 137.754822 1276.754883 148.5 1263.5 148.5 L 1105.5 148.5 C 1092.245117 148.5 1081.5 137.754822 1081.5 124.5 L 1081.5 124.5 C 1081.5 111.245178 1092.245117 100.5 1105.5 100.5 Z"/>
    <path id="path3" fill="none" stroke="#8c3cbf" stroke-width="7" d="M 204.5 694.5 L 335.5 694.5 L 335.5 735.5 L 204.5 735.5 Z"/>
    <path id="path4" fill="none" stroke="#8c3cbf" stroke-width="7" d="M 232.5 386.5 L 413.5 386.5 C 428.963959 386.5 441.5 399.036011 441.5 414.5 L 441.5 414.5 C 441.5 429.963989 428.963959 442.5 413.5 442.5 L 232.5 442.5 C 217.036026 442.5 204.5 429.963989 204.5 414.5 L 204.5 414.5 C 204.5 399.036011 217.036026 386.5 232.5 386.5 Z"/>
    <path id="path5" fill="none" stroke="#8c3cbf" stroke-width="7" d="M 232.5 469.5 L 512.5 469.5 C 527.963989 469.5 540.5 482.036011 540.5 497.5 L 540.5 497.5 C 540.5 512.963989 527.963989 525.5 512.5 525.5 L 232.5 525.5 C 217.036026 525.5 204.5 512.963989 204.5 497.5 L 204.5 497.5 C 204.5 482.036011 217.036026 469.5 232.5 469.5 Z"/>
    <path id="path6" fill="none" stroke="#8c3cbf" stroke-width="7" d="M 591 120.5 L 678 120.5"/>
    <path id="path7" fill="none" stroke="#8c3cbf" stroke-width="7" d="M 201 594.5 L 511 594.5"/>
    <path id="path8" fill="none" stroke="#8c3cbf" stroke-width="7" d="M 201 620.5 L 579 620.5"/>
    <path id="path9" fill="none" stroke="#8c3cbf" stroke-width="7" d="M 201 646.5 L 551 646.5"/>
    <path id="path10" fill="none" stroke="#8c3cbf" stroke-width="7" d="M 702 120.5 L 789 120.5"/>
    <path id="path11" fill="none" stroke="#8c3cbf" stroke-width="7" d="M 186.5 124.5 C 186.5 143.27771 171.277679 158.5 152.5 158.5 C 133.722321 158.5 118.5 143.27771 118.5 124.5 C 118.5 105.72229 133.722321 90.5 152.5 90.5 C 171.277679 90.5 186.5 105.72229 186.5 124.5 Z"/>
    <path id="path12" fill="none" stroke="#8c3cbf" stroke-width="7" d="M 942.218018 748.059021 C 1171.829956 694.778992 1150.170044 544.656982 1110.640015 476.255981 C 1092.390015 424.39502 1065.790039 428.459961 1023.090027 428.459961 C 1023.090027 428.459961 913.26001 414.5 865.562988 526.598022 C 833.830017 601.177002 876.080994 699.41803 913.26001 746.494019 C 910.284973 758.5 930.286987 765 942.218018 748.059021 Z"/>
    <path id="path13" fill="none" stroke="#8c3cbf" stroke-width="7" d="M 1094.130005 395.890991 C 1083.339966 394.317017 1072.099976 416.929993 1067.819946 428.43396 L 1082.47998 430.572998 C 1090.859985 419.667969 1104.910034 397.466003 1094.130005 395.890991 Z"/>
    <path id="path14" fill="none" stroke="#8c3cbf" stroke-width="7" d="M 1010.789978 383 C 1006.789978 409.400024 1049.790039 415 1071.790039 414.5 L 1079.290039 403.5 C 1058.089966 402.299988 1024.790039 389.333008 1010.789978 383 Z"/>
    <path id="path15" fill="none" stroke="#8c3cbf" stroke-width="7" d="M 1096.790039 408.5 C 1102.449951 416.5 1155.790039 442.5 1158.290039 447 C 1160.790039 451.5 1097.48999 442.200012 1088.290039 423"/>
</svg>
