<?xml version="1.0" encoding="UTF-8"?>
<!-- Generated by Pixelmator Pro 3.3 -->
<svg width="1379" height="995" viewBox="0 0 1379 995" xmlns="http://www.w3.org/2000/svg" xmlns:xlink="http://www.w3.org/1999/xlink">
    <path id="Path" fill="none" stroke="#f86027" stroke-width="7" d="M 73 3.5 L 1306 3.5 C 1344.383789 3.5 1375.5 34.616211 1375.5 73 L 1375.5 922 C 1375.5 960.383789 1344.383789 991.5 1306 991.5 L 73 991.5 C 34.616211 991.5 3.5 960.383789 3.5 922 L 3.5 73 C 3.5 34.616211 34.616211 3.5 73 3.5 Z"/>
    <path id="path1" fill="none" stroke="#f86027" stroke-width="7" d="M 69 49.5 L 1310 49.5 C 1320.769531 49.5 1329.5 58.230469 1329.5 69 L 1329.5 927 C 1329.5 937.769531 1320.769531 946.5 1310 946.5 L 69 946.5 C 58.230446 946.5 49.5 937.769531 49.5 927 L 49.5 69 C 49.5 58.230469 58.230446 49.5 69 49.5 Z"/>
    <path id="path2" fill="none" stroke="#f86027" stroke-width="6" d="M 117 81 L 172 81 L 172 136 L 117 136 Z"/>
    <path id="path3" fill="none" stroke="#f86027" stroke-width="6" d="M 1054 81 L 1262 81 L 1262 136 L 1054 136 Z"/>
    <path id="path4" fill="none" stroke="#f86027" stroke-width="7" d="M 148.5 534.5 L 535.5 534.5 L 535.5 597.5 L 148.5 597.5 Z"/>
    <path id="path5" fill="none" stroke="#f86027" stroke-width="7" d="M 148.5 445.5 L 607.5 445.5 L 607.5 508.5 L 148.5 508.5 Z"/>
    <path id="path6" fill="none" stroke="#f86027" stroke-width="7" d="M 145 656.5 L 552 656.5"/>
    <path id="path7" fill="none" stroke="#f86027" stroke-width="7" d="M 145 682.5 L 583 682.5"/>
    <path id="path8" fill="none" stroke="#f86027" stroke-width="7" d="M 145 708.5 L 466 708.5"/>
    <path id="path9" fill="none" stroke="#f86027" stroke-width="5" d="M 53 166.5 L 1333 166.5"/>
    <path id="path10" fill="none" stroke="#f86027" stroke-width="6" d="M 888.116028 537 L 847 685 L 1166 685 L 1115.609985 537 L 888.116028 537 Z"/>
    <path id="path11" fill="none" stroke="#f86027" stroke-width="6" d="M 894 422 L 1108 422 L 1108 537 L 894 537 Z"/>
</svg>
